<?xml version="1.0" encoding="utf-8"?>
<svg data-v-0dd9719b="" version="1.0" width="100%" height="100%" viewBox="84 39 248 72" preserveAspectRatio="xMidYMid meet" color-interpolation-filters="sRGB" style="margin: auto;" xmlns="http://www.w3.org/2000/svg">
  <g data-v-0dd9719b="" fill="#393f57" class="icon-text-wrapper icon-svg-group iconsvg" transform="matrix(1.13817, 0, 0, 1.13817, 80.378494, 40.346897)" style="">
    <g fill="#f69e7c" class="iconsvg-imagesvg icon_container" transform="translate(6.21812057495117,0)">
      <rect fill="#393f57" fill-opacity="0" stroke-width="2" x="0" y="0" width="90.69373942470389" height="90.69373942470389" class="image-rect"/>
      <g hollow-target="iconBnOutline">
        <g mask="url(#44f7a97a-0703-4d30-9475-a5a9b27a2f41)">
          <svg fill="#000000" xmlns="http://www.w3.org/2000/svg" version="1.1" x="0" y="0" viewBox="0.54496 0.546 48.91108 48.909" enable-background="new 0 0 50 50" style="overflow: visible;" width="60" height="59.997600095996155" filtersec="colorsf9338855285" filter="url(#3m_XRBip6hsaz7Ju_QOVV)">
            <g transform="scale(1, 1) skewX(0)">
              <path d="M25.117,49.455c-1.077,0-2.089-0.413-2.85-1.163L1.748,28.05c-0.78-0.77-1.208-1.803-1.203-2.908  c0.005-1.097,0.435-2.135,1.212-2.923l20.145-20.42c0.797-0.808,1.855-1.253,2.98-1.253c1.077,0,2.089,0.414,2.851,1.164  l20.52,20.242c0.781,0.77,1.208,1.803,1.203,2.908c-0.005,1.096-0.436,2.134-1.213,2.922l-20.145,20.42  C27.301,49.01,26.242,49.455,25.117,49.455z M24.882,2.545c-0.585,0-1.139,0.233-1.557,0.657L3.181,23.623  c-0.407,0.413-0.633,0.956-0.636,1.527c-0.002,0.563,0.213,1.087,0.607,1.476l20.52,20.242c0.795,0.784,2.192,0.75,3.002-0.07  l20.145-20.42c0.408-0.414,0.635-0.956,0.637-1.527c0.003-0.563-0.213-1.086-0.607-1.476L26.328,3.133  C25.943,2.754,25.43,2.545,24.882,2.545z"/>
            </g>
            <defs>
              <filter id="3m_XRBip6hsaz7Ju_QOVV">
                <feColorMatrix type="matrix" values="0 0 0 0 0.9609375  0 0 0 0 0.6171875  0 0 0 0 0.484375  0 0 0 1 0"/>
              </filter>
            </defs>
          </svg>
        </g>
        <g filter="url(#colors6551887467)">
          <svg xmlns="http://www.w3.org/2000/svg" viewBox="0 0 50.544000000000004 48.81600000000001" width="34" height="33.99864" x="13" y="12.999480047998077" class="image-svg-letter">
            <path transform="translate(-2.232 48.24000000000001)" d="M2.23-39.74L6.91-39.74L6.91-20.74C6.91-4.90 15.62 0.58 27.50 0.58C39.31 0.58 48.10-4.97 48.10-20.74L48.10-39.74L52.78-39.74L52.78-48.24L32.98-48.24L32.98-39.74L37.66-39.74L37.66-20.74C37.66-11.30 33.62-8.35 27.58-8.35C21.46-8.35 17.35-11.30 17.35-20.74L17.35-39.74L22.03-39.74L22.03-48.24L2.23-48.24Z"/>
          </svg>
        </g>
      </g>
      <mask id="44f7a97a-0703-4d30-9475-a5a9b27a2f41">
        <g fill="white">
          <svg xmlns="http://www.w3.org/2000/svg" version="1.1" x="0" y="0" viewBox="0.54496 0.546 48.91108 48.909" enable-background="new 0 0 50 50" style="overflow: visible;" width="60" height="59.997600095996155" filtersec="colorsf9338855285">
            <g transform="scale(1, 1) skewX(0)">
              <path d="M25.117,49.455c-1.077,0-2.089-0.413-2.85-1.163L1.748,28.05c-0.78-0.77-1.208-1.803-1.203-2.908  c0.005-1.097,0.435-2.135,1.212-2.923l20.145-20.42c0.797-0.808,1.855-1.253,2.98-1.253c1.077,0,2.089,0.414,2.851,1.164  l20.52,20.242c0.781,0.77,1.208,1.803,1.203,2.908c-0.005,1.096-0.436,2.134-1.213,2.922l-20.145,20.42  C27.301,49.01,26.242,49.455,25.117,49.455z M24.882,2.545c-0.585,0-1.139,0.233-1.557,0.657L3.181,23.623  c-0.407,0.413-0.633,0.956-0.636,1.527c-0.002,0.563,0.213,1.087,0.607,1.476l20.52,20.242c0.795,0.784,2.192,0.75,3.002-0.07  l20.145-20.42c0.408-0.414,0.635-0.956,0.637-1.527c0.003-0.563-0.213-1.086-0.607-1.476L26.328,3.133  C25.943,2.754,25.43,2.545,24.882,2.545z"/>
            </g>
          </svg>
        </g>
        <g fill="black" filter="url(#2b7005c7-9651-45a0-9301-fbd189e15860)">
          <svg xmlns="http://www.w3.org/2000/svg" viewBox="0 0 50.544000000000004 48.81600000000001" width="34" height="33.99864" x="13" y="12.999480047998077" class="image-svg-letter">
            <path transform="translate(-2.232 48.24000000000001)" d="M2.23-39.74L6.91-39.74L6.91-20.74C6.91-4.90 15.62 0.58 27.50 0.58C39.31 0.58 48.10-4.97 48.10-20.74L48.10-39.74L52.78-39.74L52.78-48.24L32.98-48.24L32.98-39.74L37.66-39.74L37.66-20.74C37.66-11.30 33.62-8.35 27.58-8.35C21.46-8.35 17.35-11.30 17.35-20.74L17.35-39.74L22.03-39.74L22.03-48.24L2.23-48.24Z"/>
          </svg>
        </g>
        <defs>
          <filter id="2b7005c7-9651-45a0-9301-fbd189e15860">
            <feGaussianBlur in="SourceGraphic" stdDeviation="1.26"/>
            <feComponentTransfer>
              <feFuncA type="discrete" tableValues="0 1 1 1 1 1 1 1 1 1 1 1 1 1 0"/>
            </feComponentTransfer>
          </filter>
        </defs>
      </mask>
      <defs>
        <filter id="colors6551887467">
          <feColorMatrix type="matrix" values="0 0 0 0 0.92578125  0 0 0 0 0.8515625  0 0 0 0 0.81640625  0 0 0 1 0" class="icon-fecolormatrix"/>
        </filter>
      </defs>
    </g>
    <g transform="translate(80, 10)">
      <g data-gra="path-name" fill="&lt;%=@u_color%&gt;" fill-rule="" class="tp-name iconsvg-namesvg" transform="translate(0,0)">
        <g transform="scale(.5)">
          <g>
            <path d="M 112 167.67 L 115.66 167.67 L 115.66 182.52 C 115.66 194.9 122.47 199.18 131.76 199.18 C 140.98 199.18 147.85 194.85 147.85 182.52 L 147.85 167.67 L 151.51 167.67 L 151.51 161.03 L 136.03 161.03 L 136.03 167.67 L 139.69 167.67 L 139.69 182.52 C 139.69 189.9 136.54 192.2 131.81 192.2 C 127.03 192.2 123.82 189.9 123.82 182.52 L 123.82 167.67 L 127.48 167.67 L 127.48 161.03 L 112 161.03 L 112 167.67 Z M 154.43 175.49 L 158.09 175.49 L 158.09 203.12 L 154.43 203.12 L 154.43 208.8 L 169.46 208.8 L 169.46 203.12 L 165.74 203.12 L 165.74 195.63 C 167.94 198 170.81 199.18 174.35 199.18 C 181.56 199.18 186.79 193.83 186.79 184.16 C 186.79 174.7 181.5 169.36 174.3 169.36 C 170.75 169.36 167.94 170.54 165.74 172.9 L 165.74 169.81 L 154.43 169.81 L 154.43 175.49 Z M 165.74 181 C 166.59 177.91 168.9 176.16 171.99 176.16 C 176.04 176.16 178.97 179.15 178.97 184.32 C 178.97 189.5 176.04 192.6 171.99 192.6 C 169.07 192.6 166.59 190.85 165.74 187.87 L 165.74 181 Z M 202.38 169.36 C 194.05 169.36 189.94 172.62 189.94 177.85 C 189.94 187.53 205.87 186.46 205.87 190.8 C 205.87 193.05 204.12 193.67 201.25 193.67 C 199.51 193.67 197.99 193.38 196.36 192.99 L 195.96 188.77 L 190.17 188.77 L 190.17 197.1 C 193.32 198.17 197.6 199.18 202.1 199.18 C 210.37 199.18 213.63 196.09 213.63 190.91 C 213.63 181.12 197.71 182.24 197.71 177.35 C 197.71 175.26 199.79 174.7 202.94 174.7 C 204.29 174.7 205.53 174.76 206.71 175.15 L 207.11 179.37 L 212.56 179.37 L 212.56 171.33 C 210.37 170.42 206.66 169.36 202.38 169.36 Z M 216.73 184.16 C 216.73 193.83 222.81 199.18 231.53 199.18 C 236.76 199.18 240.42 197.55 243.4 195.02 L 241.6 188.99 C 239.18 190.96 236.7 192.54 233.16 192.54 C 228.66 192.54 225.9 190.35 224.94 186.74 L 244.75 186.74 C 244.81 185.9 244.86 184.21 244.86 183.48 C 244.86 175.21 240.59 169.36 231.36 169.36 C 222.97 169.36 216.73 174.7 216.73 184.16 Z M 224.72 182.19 C 225.34 178.08 227.98 175.55 231.58 175.55 C 236.25 175.55 238.45 178.81 238.45 182.19 L 224.72 182.19 Z M 246.44 164.68 L 250.21 164.68 L 250.21 192.99 L 246.44 192.99 L 246.44 198.73 L 261.63 198.73 L 261.63 192.99 L 257.86 192.99 L 257.86 159 L 246.44 159 L 246.44 164.68 Z M 263.94 164.68 L 267.71 164.68 L 267.71 192.99 L 263.94 192.99 L 263.94 198.73 L 279.13 198.73 L 279.13 192.99 L 275.36 192.99 L 275.36 159 L 263.94 159 L 263.94 164.68 Z" style="fill: rgb(246, 158, 124);"/>
          </g>
        </g>
      </g>
    </g>
  </g>
  <text style="fill: rgb(240, 216, 207); font-family: &quot;Clab Personal Use&quot;; font-size: 30px; letter-spacing: 0.4px; text-anchor: middle; word-spacing: 4.9px; white-space: pre;" transform="matrix(1, 0, 0, 1, 59.138935, -14.008821)"><tspan x="162.233" y="83.263">Upsell</tspan><tspan x="162.233" dy="1.1em">​</tspan><tspan>Cart</tspan></text>
</svg>